<?xml version="1.0" standalone="no"?>
<!DOCTYPE svg PUBLIC "-//W3C//DTD SVG 20010904//EN"
 "http://www.w3.org/TR/2001/REC-SVG-20010904/DTD/svg10.dtd">
<svg version="1.0" xmlns="http://www.w3.org/2000/svg"
 width="2799.000000pt" height="525.000000pt" viewBox="0 0 2799.000000 525.000000"
 preserveAspectRatio="xMidYMid meet">
<metadata>
Created by potrace 1.15, written by Peter Selinger 2001-2017
</metadata>
<g transform="translate(0.000000,525.000000) scale(0.100000,-0.100000)"
fill="#000000" stroke="none">
<path d="M15592 5002 c-10 -7 -12 -333 -10 -1598 l3 -1589 169 -3 c116 -2 173
1 182 9 12 10 14 259 14 1588 0 1213 -3 1580 -12 1589 -14 14 -324 17 -346 4z"/>
<path d="M16605 4988 c-3 -13 -4 -732 -3 -1598 l3 -1575 180 0 180 0 0 1595 0
1595 -177 3 c-177 2 -178 2 -183 -20z"/>
<path d="M7845 4955 l-25 -24 0 -1609 0 -1609 23 -21 c31 -29 105 -30 138 -3
l24 19 5 519 c4 410 8 523 19 543 26 48 194 210 218 210 17 0 182 -167 637
-643 339 -354 627 -649 641 -655 34 -16 167 -16 183 0 7 7 12 22 12 34 0 16
-186 217 -652 705 -359 375 -657 692 -662 705 -6 14 -6 31 0 43 5 11 182 203
394 427 402 425 470 500 470 515 0 5 -9 18 -21 30 -18 18 -30 21 -93 17 -46
-2 -82 -9 -98 -20 -15 -10 -237 -239 -494 -510 -257 -271 -478 -500 -491 -508
-23 -14 -26 -13 -44 9 -18 23 -19 49 -19 902 0 622 -3 885 -11 902 -23 51
-113 64 -154 22z"/>
<path d="M21974 4747 c-2 -7 -3 -91 -2 -187 l3 -175 200 0 200 0 3 188 2 187
-200 0 c-154 0 -202 -3 -206 -13z"/>
<path d="M11155 4285 c-209 -34 -427 -123 -595 -244 -94 -67 -230 -196 -295
-281 -138 -180 -232 -401 -271 -640 -20 -117 -13 -377 11 -490 61 -278 192
-523 378 -713 236 -240 512 -370 813 -384 114 -5 122 -5 143 16 16 16 21 33
21 76 0 79 -14 90 -131 99 -293 22 -527 131 -725 338 -300 314 -406 773 -279
1211 167 577 763 928 1379 811 444 -85 805 -424 916 -864 96 -383 4 -829 -197
-947 -61 -35 -155 -56 -219 -48 -105 13 -209 105 -255 225 -43 113 -48 180
-49 646 0 423 -1 441 -20 461 -54 59 -170 27 -170 -46 0 -32 -14 -32 -81 -2
-94 42 -160 55 -248 48 -100 -7 -163 -28 -239 -78 -102 -67 -181 -184 -224
-336 -33 -113 -33 -343 0 -456 56 -195 171 -331 328 -387 133 -47 259 -37 401
31 46 21 92 39 102 39 14 0 36 -24 71 -79 139 -217 328 -299 554 -241 254 65
422 317 467 699 17 136 6 341 -25 471 -124 536 -551 950 -1088 1055 -117 23
-360 28 -473 10z m287 -943 c71 -31 122 -90 148 -171 20 -64 22 -84 18 -282
-3 -199 -5 -218 -27 -267 -29 -63 -97 -127 -155 -144 -23 -6 -75 -12 -116 -12
-168 0 -275 100 -314 296 -43 212 7 437 118 535 82 72 223 92 328 45z"/>
<path d="M1440 4194 c-231 -44 -392 -133 -552 -304 -51 -55 -97 -100 -104
-100 -6 0 -18 8 -27 18 -14 15 -17 42 -17 158 0 158 -7 179 -65 190 -44 8 -80
-1 -105 -26 -20 -20 -20 -40 -20 -1677 1 -1288 3 -1662 13 -1674 17 -23 52
-39 82 -39 33 0 81 24 89 45 3 9 6 287 6 616 0 594 2 639 33 639 7 0 54 -45
105 -100 205 -220 425 -315 727 -314 157 1 261 21 387 74 263 112 481 370 581
687 57 177 72 289 72 528 0 190 -4 235 -23 330 -87 417 -284 710 -577 855
-149 74 -228 92 -420 95 -88 2 -171 1 -185 -1z m320 -198 c246 -53 432 -197
558 -436 145 -274 182 -690 92 -1045 -94 -374 -333 -624 -655 -686 -79 -15
-252 -12 -335 6 -100 22 -240 91 -321 158 -122 101 -235 278 -289 452 -91 298
-89 673 7 955 111 325 324 530 618 595 80 18 244 18 325 1z"/>
<path d="M3769 4181 c-347 -75 -618 -342 -743 -731 -66 -203 -92 -393 -83
-605 19 -455 188 -827 469 -1036 318 -236 774 -250 1111 -33 103 67 230 199
305 319 34 54 62 108 62 120 0 31 -24 59 -69 79 -61 28 -83 17 -141 -68 -172
-256 -346 -374 -599 -405 -85 -11 -224 1 -310 25 -280 81 -504 336 -592 672
-17 66 -48 269 -49 325 0 10 11 29 25 42 l24 25 891 0 c973 0 952 -1 966 56
12 47 -5 245 -31 357 -98 434 -372 744 -750 847 -115 32 -364 38 -486 11z
m446 -201 c276 -87 484 -308 570 -606 45 -157 49 -233 12 -256 -7 -4 -97 -8
-202 -7 -181 0 -189 1 -165 17 161 108 217 378 118 564 -65 122 -155 183 -268
183 -113 0 -203 -61 -268 -183 -99 -186 -43 -456 118 -564 24 -16 -2 -17 -457
-17 l-482 -1 -21 27 c-25 32 -23 59 17 198 98 349 333 591 638 659 100 23 296
15 390 -14z m137 -166 c54 -18 109 -69 149 -139 39 -67 37 -80 -6 -51 -65 45
-173 46 -236 3 -119 -81 -131 -208 -29 -301 64 -58 172 -71 249 -31 17 8 31
11 31 6 0 -13 -68 -101 -94 -123 -26 -21 -101 -48 -136 -48 -120 0 -235 122
-262 278 -35 208 92 417 258 421 17 1 51 -6 76 -15z"/>
<path d="M6159 4181 c-168 -37 -325 -122 -454 -248 -338 -329 -465 -955 -305
-1510 73 -252 222 -481 397 -611 236 -174 543 -232 837 -157 174 44 322 131
445 261 73 77 186 238 198 282 9 37 -13 70 -61 93 -65 32 -86 23 -147 -69
-101 -151 -203 -250 -329 -319 -205 -114 -485 -115 -705 -5 -295 148 -470 454
-509 895 -6 62 -5 69 18 92 l25 25 889 0 c623 0 898 3 921 11 17 6 36 19 41
29 13 25 13 149 -1 246 -58 419 -274 748 -594 904 -151 74 -229 92 -420 96
-129 3 -177 0 -246 -15z m446 -201 c311 -98 532 -364 600 -721 15 -80 9 -124
-18 -141 -7 -4 -115 -7 -242 -7 -204 0 -226 2 -194 14 121 44 208 160 231 310
22 143 -21 290 -112 384 -113 116 -287 116 -400 0 -201 -207 -134 -601 119
-694 31 -12 -40 -13 -488 -12 l-524 2 -19 26 c-19 25 -19 30 -5 100 84 401
328 679 662 753 100 23 296 15 390 -14z m137 -136 c54 -18 109 -69 149 -139
39 -67 37 -80 -6 -51 -65 45 -173 46 -236 3 -119 -81 -131 -208 -29 -301 64
-58 172 -71 249 -31 17 8 31 11 31 6 0 -13 -68 -101 -94 -123 -26 -21 -101
-48 -136 -48 -120 0 -235 122 -262 278 -35 208 92 417 258 421 17 1 51 -6 76
-15z"/>
<path d="M14045 4099 c-274 -50 -471 -161 -624 -354 -56 -69 -142 -226 -168
-305 -28 -82 -61 -241 -68 -320 -30 -369 30 -668 180 -905 139 -219 332 -361
580 -426 77 -20 113 -24 250 -24 156 0 180 3 315 42 183 53 351 170 453 318
73 105 143 273 135 326 l-3 24 -160 1 c-88 0 -167 -1 -176 -4 -9 -2 -21 -20
-27 -40 -46 -149 -170 -271 -323 -316 -227 -68 -474 -19 -615 123 -131 130
-223 343 -224 513 l0 58 788 2 787 3 0 205 c0 179 -3 217 -23 300 -23 96 -80
249 -113 305 -10 17 -26 44 -35 60 -66 118 -217 256 -360 328 -156 79 -402
116 -569 86z m301 -324 c32 -8 86 -29 121 -47 165 -83 289 -300 296 -518 l2
-75 -589 -3 c-432 -1 -592 1 -597 9 -18 30 27 222 78 326 70 145 215 265 368
307 70 19 250 20 321 1z"/>
<path d="M20487 4094 c-295 -49 -529 -215 -671 -474 -102 -187 -136 -359 -136
-687 0 -215 8 -302 37 -423 43 -179 124 -334 247 -469 52 -56 186 -152 271
-191 141 -66 233 -84 440 -83 203 0 276 14 414 79 258 121 450 382 477 647 l7
67 -184 -2 -184 -3 -17 -65 c-41 -152 -137 -280 -257 -344 -219 -117 -493 -73
-675 108 -91 90 -147 211 -181 386 -21 105 -20 479 0 588 51 268 170 431 375
515 198 81 427 42 576 -96 81 -75 125 -158 161 -307 l9 -35 182 -3 182 -2 -1
42 c0 49 -21 153 -32 164 -4 4 -7 13 -7 21 0 29 -75 171 -127 240 -99 132
-225 227 -378 283 -151 56 -358 73 -528 44z"/>
<path d="M23545 4094 c-86 -14 -158 -31 -190 -44 -11 -5 -42 -16 -69 -26 -70
-26 -183 -102 -238 -161 -52 -56 -103 -133 -136 -204 -25 -55 -58 -219 -49
-243 6 -15 25 -16 179 -14 l172 3 17 72 c22 89 39 123 92 181 52 56 95 83 172
110 188 65 455 44 573 -44 85 -64 127 -133 148 -247 15 -76 19 -264 6 -283 -4
-7 -56 -15 -132 -19 -69 -4 -143 -8 -165 -10 -22 -2 -107 -6 -190 -9 -388 -16
-588 -70 -746 -200 -337 -277 -311 -821 51 -1063 83 -56 139 -80 265 -114 33
-9 105 -14 215 -13 193 0 268 17 415 89 108 52 194 120 253 198 24 31 47 57
50 57 4 0 12 -26 19 -59 20 -109 75 -188 159 -231 85 -43 296 -39 377 8 l27
16 0 117 c0 65 -2 124 -6 132 -4 11 -20 13 -72 10 -58 -5 -71 -2 -95 17 -58
46 -57 36 -57 714 0 577 -2 627 -20 709 -69 315 -300 505 -675 557 -94 13
-253 10 -350 -6z m685 -1297 c0 -337 -152 -587 -416 -687 -171 -64 -402 -50
-522 32 -63 43 -91 76 -126 148 -28 60 -31 73 -31 165 0 93 2 104 32 161 54
104 161 182 302 220 57 16 166 25 511 44 107 6 200 12 205 14 6 2 18 -1 28 -6
14 -7 17 -23 17 -91z"/>
<path d="M26020 4084 c-97 -24 -108 -28 -195 -72 -109 -55 -190 -126 -253
-220 -19 -29 -38 -50 -41 -46 -9 9 -30 162 -31 224 0 31 -5 61 -12 68 -13 13
-271 18 -302 6 -14 -6 -16 -113 -16 -1114 0 -1001 2 -1108 16 -1114 23 -9 327
-7 341 2 9 5 13 178 16 677 5 694 4 673 46 838 15 61 76 177 125 239 51 63
144 133 226 168 68 29 223 39 309 20 119 -26 225 -97 276 -184 13 -23 34 -70
47 -106 l23 -65 3 -790 c2 -606 6 -791 15 -797 14 -9 318 -11 341 -2 14 6 16
84 16 788 0 429 -4 817 -10 861 -25 214 -134 411 -286 515 -169 117 -436 159
-654 104z"/>
<path d="M17492 4041 c-11 -7 -13 -154 -10 -827 l4 -819 27 -99 c75 -279 233
-442 489 -505 121 -30 335 -30 445 0 120 32 236 94 322 173 39 36 111 130 111
146 0 5 6 10 14 10 17 0 25 -40 35 -185 5 -74 12 -110 22 -116 8 -5 79 -8 159
-6 l145 2 0 1115 0 1115 -169 3 c-93 1 -173 -1 -178 -6 -5 -5 -9 -257 -8 -566
1 -763 -13 -891 -113 -1091 -37 -76 -153 -190 -227 -226 -104 -51 -120 -54
-250 -53 -105 0 -134 4 -185 23 -132 51 -210 143 -252 297 -14 51 -17 160 -20
834 -3 591 -7 776 -16 782 -16 10 -329 10 -345 -1z"/>
<path d="M21992 4038 c-9 -9 -12 -259 -12 -1115 l0 -1103 23 -5 c12 -3 96 -4
187 -3 l165 3 0 1115 0 1115 -175 3 c-128 2 -179 -1 -188 -10z"/>
<path d="M27345 2135 c-76 -35 -115 -96 -115 -180 0 -123 71 -190 200 -190 77
1 123 26 164 89 28 44 35 120 15 173 -35 95 -171 150 -264 108z m152 -42 c79
-45 102 -161 46 -231 -37 -46 -67 -62 -116 -62 -115 0 -185 105 -142 215 32
84 136 122 212 78z"/>
<path d="M27357 2043 c-10 -9 -9 -181 1 -187 15 -9 30 9 34 39 2 22 9 31 26
33 18 3 26 -4 37 -32 10 -24 22 -36 35 -36 24 0 25 11 4 56 -14 30 -14 35 0
56 20 29 20 34 -4 58 -15 15 -33 20 -73 20 -30 0 -57 -3 -60 -7z"/>
<path d="M9649 1100 c-75 -22 -119 -85 -119 -170 0 -97 33 -131 165 -172 55
-17 112 -37 127 -44 34 -17 58 -62 58 -106 0 -140 -233 -190 -315 -67 -11 16
-24 27 -30 26 -43 -15 34 -108 105 -127 84 -23 193 7 239 66 48 61 49 151 4
205 -32 38 -60 52 -158 78 -102 28 -141 52 -155 97 -30 90 39 184 134 184 53
0 88 -16 127 -61 30 -34 37 -38 48 -25 10 12 6 21 -21 52 -55 62 -135 87 -209
64z"/>
<path d="M14075 1096 c-43 -19 -66 -49 -80 -103 l-12 -48 -47 -3 c-38 -3 -47
-6 -44 -20 2 -12 16 -18 48 -22 l45 -5 3 -227 c2 -194 5 -228 17 -228 13 0 15
34 15 230 l0 230 85 0 c78 0 85 2 85 20 0 18 -7 20 -79 20 -44 0 -82 4 -85 8
-9 15 13 78 33 96 11 10 38 20 60 23 31 4 41 10 41 24 0 23 -39 25 -85 5z"/>
<path d="M11835 1088 c-3 -7 -4 -155 -3 -328 3 -272 5 -315 18 -315 13 0 16
28 20 170 5 176 9 194 54 243 31 35 70 52 116 52 45 0 72 -11 108 -44 50 -45
56 -70 62 -251 4 -142 7 -170 20 -170 13 0 15 25 15 165 0 161 -1 166 -28 223
-34 68 -81 104 -147 113 -63 9 -124 -10 -165 -51 l-34 -35 -3 117 c-2 82 -7
118 -15 121 -7 2 -15 -2 -18 -10z"/>
<path d="M12948 1023 l-3 -78 -70 -5 c-53 -4 -70 -9 -70 -20 0 -12 16 -16 73
-18 l72 -3 0 -229 c0 -197 2 -230 15 -230 12 0 15 34 17 228 l3 227 70 5 c53
4 70 9 70 20 0 11 -17 16 -70 20 l-70 5 -3 78 c-2 58 -6 77 -17 77 -11 0 -15
-19 -17 -77z"/>
<path d="M15230 770 c0 -287 2 -330 15 -330 13 0 15 43 15 330 0 287 -2 330
-15 330 -13 0 -15 -43 -15 -330z"/>
<path d="M16835 1088 c-3 -7 -4 -155 -3 -328 3 -272 5 -315 18 -315 13 0 16
27 20 165 6 183 15 217 69 263 40 33 69 41 125 35 114 -13 156 -104 156 -335
0 -115 2 -133 16 -133 14 0 15 20 12 173 -3 157 -5 176 -27 220 -61 124 -209
153 -311 61 l-39 -36 -3 118 c-2 83 -7 119 -15 122 -7 2 -15 -2 -18 -10z"/>
<path d="M10117 935 c-85 -30 -128 -101 -135 -220 -5 -89 7 -146 41 -196 48
-71 139 -104 220 -79 44 13 117 77 117 103 0 32 -20 26 -64 -20 -44 -47 -45
-48 -108 -48 -49 0 -70 5 -95 23 -38 27 -72 94 -76 148 l-2 39 188 3 187 2 0
37 c0 121 -97 224 -210 223 -14 -1 -42 -7 -63 -15z m140 -42 c41 -19 81 -76
90 -127 l6 -36 -168 0 -168 0 6 36 c18 112 134 175 234 127z"/>
<path d="M10597 935 c-85 -30 -128 -101 -135 -220 -5 -89 7 -146 41 -196 48
-71 139 -104 220 -79 44 13 117 77 117 103 0 32 -20 26 -64 -20 -44 -47 -45
-48 -108 -48 -49 0 -70 5 -95 23 -38 27 -72 94 -76 148 l-2 39 188 3 187 2 0
37 c0 121 -97 224 -210 223 -14 -1 -42 -7 -63 -15z m140 -42 c41 -19 81 -76
90 -127 l6 -36 -168 0 -168 0 6 36 c18 112 134 175 234 127z"/>
<path d="M12462 939 c-52 -15 -109 -79 -128 -145 -22 -77 -15 -184 16 -248 57
-119 207 -151 304 -66 18 17 36 30 39 30 3 0 7 -15 9 -32 2 -21 8 -33 18 -33
13 0 15 34 15 245 0 211 -2 245 -15 245 -10 0 -16 -12 -18 -32 -4 -39 -12 -41
-38 -12 -44 50 -127 69 -202 48z m138 -44 c126 -65 133 -320 11 -402 -36 -24
-100 -31 -143 -14 -65 24 -113 115 -113 211 0 94 48 185 110 211 33 13 104 10
135 -6z"/>
<path d="M13383 931 c-105 -49 -110 -182 -10 -229 23 -11 67 -25 97 -32 72
-17 106 -37 121 -73 17 -39 2 -76 -41 -105 -30 -20 -44 -23 -98 -20 -56 4 -66
8 -100 41 -33 32 -41 36 -51 24 -9 -12 -5 -22 21 -50 54 -57 148 -73 224 -38
58 26 84 63 84 120 0 80 -28 104 -168 141 -92 25 -122 50 -122 105 0 96 154
130 229 49 24 -27 36 -33 44 -25 9 9 8 19 -3 38 -35 63 -150 90 -227 54z"/>
<path d="M14387 935 c-85 -30 -128 -101 -135 -220 -2 -44 1 -98 7 -121 51
-190 283 -221 374 -50 19 35 22 57 22 146 0 89 -3 111 -22 146 -51 95 -148
135 -246 99z m161 -53 c104 -75 104 -309 0 -384 -70 -49 -177 -29 -224 42 -74
112 -44 302 57 354 46 23 126 17 167 -12z"/>
<path d="M16016 935 c-21 -7 -50 -25 -65 -39 -36 -34 -41 -33 -41 9 0 24 -5
35 -15 35 -13 0 -15 -34 -15 -250 0 -209 2 -250 14 -250 12 0 15 31 18 163 3
146 5 167 26 209 34 69 73 93 147 93 74 0 113 -24 147 -93 21 -42 23 -63 26
-209 3 -137 6 -163 19 -163 13 0 14 25 11 178 -3 160 -5 181 -25 218 -51 96
-148 135 -247 99z"/>
<path d="M16507 935 c-85 -30 -128 -101 -135 -220 -5 -89 7 -146 41 -196 69
-102 212 -116 299 -29 21 21 38 45 38 53 0 33 -22 27 -64 -20 l-44 -48 -65 0
c-80 0 -111 19 -147 91 -51 101 -24 262 53 318 22 16 44 21 93 21 65 0 66 0
110 -48 44 -46 64 -52 64 -20 0 26 -73 90 -115 102 -52 14 -81 13 -128 -4z"/>
<path d="M11130 935 c0 -3 28 -116 61 -251 80 -318 76 -318 175 -31 40 115 74
210 77 213 2 3 26 -57 52 -133 97 -278 101 -288 122 -291 18 -3 26 20 82 242
33 135 61 248 61 251 0 10 -29 5 -36 -7 -4 -6 -28 -96 -55 -200 -44 -176 -54
-208 -62 -197 -2 2 -32 87 -66 189 -72 210 -76 220 -96 220 -19 0 -24 -9 -95
-215 -34 -99 -66 -184 -70 -189 -9 -9 -12 -1 -65 214 -41 168 -49 190 -70 190
-8 0 -15 -2 -15 -5z"/>
<path d="M14855 926 c-46 -20 -82 -69 -95 -129 -6 -29 -9 -120 -8 -202 3 -125
5 -150 18 -150 13 0 16 29 20 180 6 226 15 246 123 279 9 3 17 12 17 21 0 19
-34 19 -75 1z"/>
<path d="M15364 926 c-3 -8 -4 -84 -2 -168 3 -144 5 -156 31 -211 34 -68 81
-104 150 -113 56 -8 122 14 157 51 31 33 38 31 42 -7 2 -21 8 -33 18 -33 13 0
15 34 15 245 0 211 -2 245 -15 245 -12 0 -16 -28 -21 -165 -6 -174 -8 -186
-46 -238 -31 -41 -72 -62 -123 -62 -45 0 -72 11 -108 44 -50 45 -56 71 -62
250 -4 123 -8 171 -17 174 -7 2 -16 -3 -19 -12z"/>
</g>
</svg>
